<svg xmlns="http://www.w3.org/2000/svg" width="20.92" height="28.471" viewBox="0 0 20.92 28.471">
  <g id="noun_Location_1605381" transform="translate(-15.1 -2.537)">
    <path id="Path_21" data-name="Path 21" d="M26.157,2.556A10.438,10.438,0,0,0,15.1,12.984,10.289,10.289,0,0,0,16.508,18.2l7.821,12.136a1.484,1.484,0,0,0,2.487,0L34.637,18.2a10.236,10.236,0,0,0,1.378-5.484A10.508,10.508,0,0,0,26.157,2.556Zm-.6,15.522a5.124,5.124,0,1,1,5.124-5.124A5.122,5.122,0,0,1,25.558,18.078Z" transform="translate(0 0)" fill="#d1a272"/>
  </g>
</svg>
