<svg xmlns="http://www.w3.org/2000/svg" width="21.708" height="17.631" viewBox="0 0 21.708 17.631">
  <path id="Icon_awesome-twitter" data-name="Icon awesome-twitter" d="M19.477,7.775c.014.193.014.386.014.579A12.572,12.572,0,0,1,6.832,21.012a12.573,12.573,0,0,1-6.832-2,9.2,9.2,0,0,0,1.074.055,8.91,8.91,0,0,0,5.524-1.9,4.457,4.457,0,0,1-4.16-3.085,5.611,5.611,0,0,0,.84.069A4.706,4.706,0,0,0,4.449,14,4.45,4.45,0,0,1,.882,9.634V9.579a4.481,4.481,0,0,0,2.011.565A4.456,4.456,0,0,1,1.515,4.193a12.647,12.647,0,0,0,9.174,4.656,5.022,5.022,0,0,1-.11-1.019,4.453,4.453,0,0,1,7.7-3.044A8.76,8.76,0,0,0,21.1,3.711a4.437,4.437,0,0,1-1.956,2.452,8.919,8.919,0,0,0,2.562-.689,9.564,9.564,0,0,1-2.231,2.3Z" transform="translate(0 -3.381)" fill="#d1a272"/>
</svg>
