<svg xmlns="http://www.w3.org/2000/svg" width="25.076" height="17.631" viewBox="0 0 25.076 17.631">
  <path id="Icon_awesome-youtube" data-name="Icon awesome-youtube" d="M25.6,7.259a3.151,3.151,0,0,0-2.217-2.231c-1.956-.527-9.8-.527-9.8-.527s-7.841,0-9.8.527A3.151,3.151,0,0,0,1.574,7.259a33.053,33.053,0,0,0-.524,6.075,33.053,33.053,0,0,0,.524,6.075,3.1,3.1,0,0,0,2.217,2.2c1.956.527,9.8.527,9.8.527s7.841,0,9.8-.527a3.1,3.1,0,0,0,2.217-2.2,33.053,33.053,0,0,0,.524-6.075A33.053,33.053,0,0,0,25.6,7.259Zm-14.579,9.8V9.605l6.554,3.729-6.554,3.728Z" transform="translate(-1.05 -4.5)" fill="#d1a272"/>
</svg>
