<svg xmlns="http://www.w3.org/2000/svg" width="17.635" height="17.631" viewBox="0 0 17.635 17.631">
  <path id="Icon_awesome-instagram" data-name="Icon awesome-instagram" d="M8.814,6.533a4.52,4.52,0,1,0,4.52,4.52A4.513,4.513,0,0,0,8.814,6.533Zm0,7.459a2.939,2.939,0,1,1,2.939-2.939A2.944,2.944,0,0,1,8.814,13.992Zm5.76-7.644A1.054,1.054,0,1,1,13.52,5.294,1.052,1.052,0,0,1,14.574,6.348Zm2.994,1.07a5.218,5.218,0,0,0-1.424-3.694A5.252,5.252,0,0,0,12.45,2.3c-1.456-.083-5.819-.083-7.274,0A5.245,5.245,0,0,0,1.481,3.72,5.235,5.235,0,0,0,.057,7.414c-.083,1.456-.083,5.819,0,7.274a5.218,5.218,0,0,0,1.424,3.694,5.259,5.259,0,0,0,3.694,1.424c1.456.083,5.819.083,7.274,0a5.218,5.218,0,0,0,3.694-1.424,5.252,5.252,0,0,0,1.424-3.694c.083-1.456.083-5.815,0-7.271Zm-1.881,8.832a2.975,2.975,0,0,1-1.676,1.676c-1.161.46-3.915.354-5.2.354s-4.04.1-5.2-.354a2.975,2.975,0,0,1-1.676-1.676c-.46-1.161-.354-3.915-.354-5.2s-.1-4.04.354-5.2A2.975,2.975,0,0,1,3.617,4.18c1.161-.46,3.915-.354,5.2-.354s4.04-.1,5.2.354a2.975,2.975,0,0,1,1.676,1.676c.46,1.161.354,3.915.354,5.2S16.148,15.094,15.688,16.251Z" transform="translate(0.005 -2.238)" fill="#d1a272"/>
</svg>
