<svg xmlns="http://www.w3.org/2000/svg" width="14" height="14" viewBox="0 0 14 14">
  <path id="Icon_awesome-fax" data-name="Icon awesome-fax" d="M1.75,3.5H.875A.875.875,0,0,0,0,4.375v8.75A.875.875,0,0,0,.875,14H1.75a.875.875,0,0,0,.875-.875V4.375A.875.875,0,0,0,1.75,3.5Zm11.375.875V2.112a.876.876,0,0,0-.256-.619L11.631.256A.875.875,0,0,0,11.012,0H4.375A.875.875,0,0,0,3.5.875v12.25A.875.875,0,0,0,4.375,14h8.75A.875.875,0,0,0,14,13.125V5.25A.875.875,0,0,0,13.125,4.375Zm-5.25,7.437a.437.437,0,0,1-.437.438H6.563a.437.437,0,0,1-.437-.437v-.875a.437.437,0,0,1,.438-.437h.875a.437.437,0,0,1,.438.438Zm0-3.5a.437.437,0,0,1-.437.438H6.563a.437.437,0,0,1-.437-.437V7.438A.437.437,0,0,1,6.563,7h.875a.437.437,0,0,1,.438.438Zm3.5,3.5a.437.437,0,0,1-.437.438h-.875a.437.437,0,0,1-.438-.437v-.875a.437.437,0,0,1,.438-.437h.875a.437.437,0,0,1,.437.438Zm0-3.5a.437.437,0,0,1-.437.438h-.875a.437.437,0,0,1-.438-.437V7.438A.437.437,0,0,1,10.063,7h.875a.437.437,0,0,1,.437.438Zm.438-3.063h-7V1.313H10.5v.875a.437.437,0,0,0,.438.438h.875Z" fill="#d1a272"/>
</svg>
